<svg width="900" height="900" viewBox="0 0 900 900" fill="none" xmlns="http://www.w3.org/2000/svg">
<rect width="900" height="900" fill="#1E1E1E"/>
<rect width="900" height="900" fill="white"/>
<path d="M533 665C472.5 662.5 443.5 664.5 405 665V658C448.6 658 449 648 449 626V578C465 577.2 481.667 573 488 571V618C488 659 504.5 658 533 658V665Z" fill="#8A9874" stroke="#8A9874"/>
<path d="M488 540C480.8 548.8 461 554.5 449 555L449 385.5C449 368.3 437.5 365 429 365H415.5C399 365 363.5 365 348 432H342C344 424.8 348.5 372.5 347 347H353C353 352.5 363.5 357.5 376 357.5H564.5C580.5 357.5 587.833 350.5 589.5 347H595V432H587C585.5 388 563 365 527 365H510C494.4 365 488 373 488 382V432V478V540Z" fill="#8A9874" stroke="#8A9874"/>
<path d="M542.5 478L536.5 477.5L533 487.5C508 548 477 564 430 562C353.5 551.604 297.5 468.5 316 365C324.5 308.5 353 254.5 439.5 253C501.491 251.925 533 319.5 533 335.5H539.5L533 267.5C374 194 269 308.5 269 416.5C278 550.5 398.5 571 423.5 571H449C482.5 571 513.5 558 536 542.5L542.5 478Z" fill="#8A9874" stroke="#8A9874"/>
<path d="M755 553L757 554L760 546C798 447 783.5 192.5 516 124L515.5 126C648 152 830.5 307.5 755 553Z" fill="#8A9874" stroke="#8A9874"/>
<path d="M145.5 553.5L143 554C122 497 125 435 125 432C128.5 366 153.255 295 192.5 245C296.5 112.5 435.5 117 466 117C488 117.4 510.5 122.167 519 124.5L518 127.5C404.8 99.5 304.833 148.167 269 176C173.5 237 121.5 361.5 128.5 462.5C129.3 503.3 140.167 540.167 145.5 553.5Z" fill="#8A9874" stroke="#8A9874"/>
<path d="M229.5 671L222.5 664L222 664.5L224 667L209.5 681.5C207.5 684.3 205.333 682.667 204.5 681.5L204 682L217.5 695.5L222.5 692V691.5C218.9 693.9 216.333 692.5 215.5 691.5L210 686L226.5 669.5L229 671.5L229.5 671Z" fill="#8A9874"/>
<path d="M175 595L170 598.5L172.5 593.5C172 570.5 137.5 585.5 153 603L159 604L152.5 605.5C133 582.5 170 564.5 175 595Z" fill="#8A9874"/>
<path d="M189 618.5L180 603L179.5 607L161 617.5C160.2 617.5 158 616.5 157 616L166.5 632L173 629C168 630 166.333 628 165.5 627L162 621.5L171.5 615.5L174.5 620C175.5 622.5 173.833 624.333 173.5 625L180 621C179 621.5 176 621 175.5 619.5L173 615L181.5 609.5L185 615C188 618.5 183.5 621.333 183.5 621.5L189 618.5Z" fill="#8A9874"/>
<path d="M205.5 644C204.3 645.2 202 647.167 201 648C201.8 645.6 202.333 643 202.5 642C197 621 168 641 184.5 655C189.842 655.334 191.84 655.227 192.354 655.085L192.5 655C192.5 655.028 192.456 655.057 192.354 655.085L186.5 658.5C161 640.5 194.5 614 205.5 644Z" fill="#8A9874"/>
<path d="M198.5 675L191.634 667.153C191.586 667.101 191.541 667.05 191.5 667L191.634 667.153C192.548 668.151 194.599 669.52 196.5 668L212.5 654L211 651.5L211.5 651L217.5 658L217 658.5C216.5 657.5 215 655.9 213 657.5L197.5 671C197.167 671.167 196.9 672.2 198.5 675Z" fill="#8A9874"/>
<path d="M223 654L215.5 651H222L223 654Z" fill="#8A9874"/>
<path d="M231.5 708.5L223.5 702L224 701.5C226 703.5 227.833 702.667 228.5 702L241 688.5C244 686 242 684.5 241 683.5L241.5 683L248.5 689L248 689.5L245.5 688L229.5 705.5L232 708L231.5 708.5Z" fill="#8A9874"/>
<path d="M259.5 731.5L252.5 726C254.5 727.2 255.667 726.5 256 726L261 704.5L250.5 710.5L242 716L245 719L244.5 719.5L237.5 713.5C242.5 716 257 705 264.5 701.5C262 710 258.5 718.5 259.5 731.5Z" fill="#8A9874"/>
<path d="M258.5 715L252 709.5L251 710L258.5 716.5V715Z" fill="#8A9874"/>
<path d="M291 736C283.5 735.5 280.5 751 295 749L295 750C284.5 754 272.5 737.5 291 735.5L291 736Z" fill="#8A9874" stroke="#8A9874"/>
<path d="M293.5 735C300.5 735.5 305.5 725 296.5 726V725C307 725 306.5 736 293.5 736V735Z" fill="#8A9874" stroke="#8A9874"/>
<path d="M301.5 757L296 754L294 749.5C290.5 742 287.5 725.5 296 725L296 726C292 726 291.5 748 301.5 757Z" fill="#8A9874" stroke="#8A9874"/>
<path d="M299 740C301.8 741.6 301 745 296 748.5L296.5 749.5C298.5 748.3 300.667 746 301.5 745C303.1 742.6 305.5 743.667 306.5 744.5L307 744L299.5 739.5L299 740Z" fill="#8A9874" stroke="#8A9874"/>
<path d="M332.5 742.5L329 749C331.8 743.8 337.167 746.167 339.5 748L333.5 765C332.5 767 332.5 770 327.5 768.5L338 773V772C335.2 770.4 335 769.5 336 767L343 749C345.5 749.5 351 751.5 350 757.5L353 749.5C350 751 333.5 744 332.5 742.5Z" fill="#8A9874"/>
<path d="M361.5 781L352 778V777H355.5L361.5 755.5L358.5 753.5L359 753L367.5 755.5V756.5H364.5L362 766L376 770L378 759.5L375.5 758.5V757.5L385 760.5L384.5 761H382L375.5 783L378 784.5V785.5L369 783V782H372.5L375.5 771.5L361.5 767L358.5 778.5L361.5 780V781Z" fill="#8A9874"/>
<path d="M396 788.5L387 787V786.5L391 786L395 763.5L392 762.5V762L401 763.5V764L398 764.5L393.5 787L396 788V788.5Z" fill="#8A9874"/>
<path d="M413.5 791L404.5 790V789C409.04 790.505 411 782.5 413 779L422.5 780L418.5 769.5L420 766H421C425.5 780.5 428.5 791 432 792.5V793L423 792V791.5L426 790.5L422.5 780.5L414 780C413.2 780.8 409.5 787.5 410 788.5C410 789.7 412.333 790.333 413.5 790.5V791Z" fill="#8A9874"/>
<path d="M418.5 769L413 779L413.5 780L420.5 767L420 766L418.5 769Z" fill="#8A9874"/>
<path d="M463 768.5V774.5H462.5C462.5 766.5 443.5 764 443.5 779.5C443.5 782.329 445.5 793 456 793C461.5 793.104 464.5 783.5 455.5 783V782.5H465.5V783.5L463.5 784V792.5C432 803 433 757.5 463 768.5Z" fill="#8A9874"/>
<path d="M488 790.5C477.5 791.5 470.5 767.5 486 766.5C494.8 766.5 497 774.167 497 778H500C499.2 772.8 497 764.5 485.5 765C482 765 474 769 474 777.5C474 784.5 477.5 791.5 487 792C492 792 498.5 787.5 500 781H497.5C497.1 785.4 494.5 789.5 488 790.5Z" fill="#8A9874"/>
<path d="M497 783.5C497.5 781.5 497 780 497 778L499.5 777L500 778C500.167 778.5 500 779.5 500 781L499.5 782L497 783.5Z" fill="#8A9874"/>
<path d="M686 175.5C684 202.3 689 214.5 694 227L696.5 229C688.5 212.6 685.895 196 687.5 176.5L686 175.5Z" fill="#8A9874"/>
<path d="M691.5 152C683.5 154.5 680 168.5 686 177L686.5 176C681.5 173 683 153 691.5 154C699 155.5 696.5 176 687 176.5L687 178C692.5 178 704 160.5 691.5 152Z" fill="#8A9874" stroke="#8A9874"/>
<path d="M688.5 163C686.1 164.6 686.167 172.667 686.5 176.5L687 177C686.6 170.6 686.838 166.373 688.5 163.5L688.5 163Z" fill="#8A9874" stroke="#8A9874"/>
<path d="M686.5 176C687.167 173.333 689.1 167.7 691.5 166.5V167C689.076 168.454 686.747 176.111 686.971 176.942L687 177C686.988 176.988 686.978 176.968 686.971 176.942L686.5 176Z" fill="#8A9874" stroke="#8A9874"/>
<path d="M663 176C667.5 179 684 197.5 688 209V205.5C684.5 198 670.5 181.5 663.5 175.5L663 176Z" fill="#8A9874" stroke="#8A9874"/>
<path d="M657 168.5C655 177 660 184.5 672.5 185L673.5 186.5H673C669 186 654.5 184.5 655.5 167.5C665.5 163.5 674.5 174 673.5 186L673 185.5C674 181.5 668.5 164 657 168.5Z" fill="#8A9874" fill-opacity="0.85098"/>
<path d="M672.5 185C660 184.5 655 177 657 168.5C668.5 164 674 181.5 673 185.5L673.5 186C674.5 174 665.5 163.5 655.5 167.5C654.5 184.5 669 186 673 186.5M672.5 185L673 186.5M672.5 185L673.5 186.5H673" stroke="#8A9874"/>
<path d="M676.5 225C651 226 637.5 222 623 206C649.5 200.5 670 218.5 673.5 223.5L670 222.5C659 208.5 636 204 625.5 206.5C637.5 221 656 225 670.5 223.5L672.5 223.5L676.5 225Z" fill="#8A9874"/>
<path d="M670 223.5C675.2 223.1 695.5 233.5 702 242L701 239C696.5 234 679 223 670 222.5C668 221 651.5 214.5 647 214L645.5 214.5C652.7 215.3 664.833 220.833 670 223.5Z" fill="#8A9874"/>
<path d="M731.5 215.5C727.5 215 727 209 727 205L737.5 205.5C737.5 211 736.5 215.5 733 216H732.5L733 215C736.5 214.5 736.5 209 736 207H728.5C727.788 209.492 728.09 212.238 729.587 213.793L732 215L731.5 215.5Z" fill="#8A9874"/>
<path d="M732 215C728.5 214.5 727.5 210.5 728.5 207H736C736.5 209 736.5 214.5 733 215L732.5 216H733C736.5 215.5 737.5 211 737.5 205.5L727 205C727 209 727.5 215 731.5 215.5L732 215ZM732 215L729 213.5" stroke="#8A9874"/>
<path d="M746.5 192.5C746.1 195.7 739.667 202.5 736.5 205.5L737 206.5C743 199.7 745.833 195.667 746.5 194.5V192.5Z" fill="#8A9874" fill-opacity="0.85098"/>
<path d="M727.5 207C709 200.5 704 191 703 183C718 178 727.5 195 731.5 205.5L730.5 206C725.5 188 711 179 705 184C702.711 194.073 717.613 201.631 725.515 204.753L727 205L727.5 205.5V207Z" fill="#8A9874"/>
<path d="M727.5 205.5C720.5 203 702.5 195 705 184C711 179 725.5 188 730.5 206L731.5 205.5C727.5 195 718 178 703 183C704 191 709 200.5 727.5 207V205.5ZM727.5 205.5L727 205L724 204.5" stroke="#8A9874"/>
<path d="M715 194.5C719.8 196.5 725.333 203 727.5 206L729 205.5C723.8 199.9 718.833 195.833 717 194.5H715Z" fill="#8A9874" fill-opacity="0.85098"/>
<path d="M729.5 170C717.5 168.8 726 190.5 731 205.5L731.5 206C728 193 717 166 730.5 171.5C735.5 154.5 752.5 172.5 734.5 206L735.5 206.5C738 199 745.5 184 743.5 174C743.5 170 736 156.5 729.5 170Z" fill="#8A9874" stroke="#8A9874"/>
<path d="M730.5 184C732.1 185.6 731.833 199 731.5 205.5L732.5 206C732.5 196 732.167 187.833 732 185L730.5 184Z" fill="#8A9874"/>
<path d="M705 217C706.5 235.5 727 243 732 252.5V250.5C727.5 243 707.5 234 707.5 220C712.5 221.5 725.5 233.5 732 249V248C728 238 720 222.5 705 217Z" fill="#8A9874"/>
<path d="M717.5 233.5C719.9 233.9 728.167 245.333 732 251V247.5C732 246.7 724 237 719 233L717.5 233.5Z" fill="#8A9874"/>
<path d="M723.5 175.5C720 169.5 707 167.5 712 182.5L713 183C708.5 172.5 717 168 723.5 178L723.5 175.5Z" fill="#8A9874"/>
<path d="M754.5 180C755.5 175 750.5 168 743 175L743.5 176C746.5 171.5 754.5 172 753 180.5L754.5 180Z" fill="#8A9874"/>
<path d="M723.5 175.5C720 169.5 707 167.5 712 182.5L713 183C708.5 172.5 717 168 723.5 178L723.5 175.5Z" stroke="#8A9874"/>
<path d="M754.5 180C755.5 175 750.5 168 743 175L743.5 176C746.5 171.5 754.5 172 753 180.5L754.5 180Z" stroke="#8A9874"/>
<path d="M756 235.5C754 238.3 737.5 257 738.5 293L736 280C738.5 264 748 242 755 234.5L756 235.5Z" fill="#8A9874"/>
<path d="M766 213C760 225 740.5 225.5 743 258L744 254C745 240.5 746 231.5 765 217C766 227.5 758 246.5 745 253L744 256.5C757 248.5 768.5 231 766 213Z" fill="#8A9874"/>
<path d="M776 251C765.5 254.5 759 249.5 740 269L739.5 270C752.848 258 759 254 772.5 253.5C757 276.5 750 256 739.5 271V273C747.5 256 757.5 281 776 251Z" fill="#8A9874"/>
<path d="M735.5 188C735.5 190 735.5 202 733 205.5L734.5 206C736.1 203.2 736.5 194.5 736.5 190.5L735.5 188Z" fill="#8A9874"/>
<path d="M758.5 179.5C749 180.5 743.5 178 735 205.5L736 206C737.6 199.2 743.5 178 757 181C758.5 193.5 746.5 203 737 207V209C742 203 759 200.5 758.5 179.5Z" fill="#8A9874" stroke="#8A9874"/>
<path d="M731 214.5C729.5 236 731 265 737.5 291.5L739.5 294.5C737.5 290.1 730 248 733 215L731 214.5Z" fill="#8A9874"/>
<path d="M757.5 260C748.3 262.8 742 267.167 740 269V270.5C741.5 268 747.5 263.5 758.5 260.5C758.9 260.1 758 260 757.5 260Z" fill="#8A9874"/>
<path d="M622.5 255.5C662 254 720.5 268.5 748.5 319L741 302.5C715 275.5 684.5 256.5 628.5 253.5C625.3 251.9 623.167 254.167 622.5 255.5Z" fill="#8A9874" stroke="#8A9874"/>
<path d="M650.5 243L668.5 259.5H670.5L651 242.5L650.5 243Z" fill="#8A9874"/>
<path d="M649 260.5C643 284 622 256 648 259L646 260C627.5 258.5 642 279 647.5 261.5L649 260.5Z" fill="#8A9874"/>
<path d="M616 253C617.2 247.8 628.5 243 635 254H633C631.102 249.5 619.5 246 617.5 255C610.5 257 626.5 267 632.5 255.5L635 256C626.5 271.5 606 257.5 616 253Z" fill="#8A9874"/>
<path d="M642 264C644.4 260 651.333 258 654.5 257.5L657.081 258.074C657.954 258.069 658.631 258.205 659 258.5L657.081 258.074C653.227 258.093 645.538 260.831 643.5 264.5L642 264Z" fill="#8A9874" stroke="#8A9874"/>
<path d="M655.5 248C637.5 245 656.5 229.5 656.5 247L658 248C657.5 225 632.5 246.5 657 249L655.5 248Z" fill="#8A9874" stroke="#8A9874" stroke-width="0.5"/>
<path d="M679 246C677.4 249.2 684 262 689.5 266.5L693.5 267.5C682.5 261 679.5 247.5 679.5 246.5L679 246Z" fill="#8A9874" stroke="#8A9874" stroke-width="0.5"/>
<path d="M673 279C647 303 655 254.5 673 278L671 278.5C658.5 257.5 648 298.5 671 279.5L673 279Z" fill="#8A9874"/>
<path d="M680.5 251C690.5 238.5 668 240 679.5 251L680 252H679.5C665 239 693 237 681 252L680.5 251Z" fill="#8A9874" stroke="#8A9874" stroke-width="0.5"/>
<path d="M662.5 278.5L661.5 279.5C663.868 280.893 666.817 280.579 670.5 279.735C680.039 277.551 694.496 271.817 716.5 283L708 277C682.5 270 672 281.5 662.5 278.5Z" fill="#8A9874"/>
<path d="M795.5 292C777.1 318.8 771.5 325.5 767 375L769 383C771.5 354.5 770 327 796 293.5L795.5 292Z" fill="#8A9874"/>
<path d="M762.5 306.5C770.1 321.7 771.333 339.833 771 347L772.5 340C772.5 327.6 766.5 312.167 763.5 306L762.5 306.5Z" fill="#8A9874"/>
<path d="M760.5 297.5C758.1 302.3 758.5 313 766.5 315L767 317.5C762.5 317 752.5 307.5 760 295C767.5 298.5 772.5 311.5 767 315.5L766.5 314C769.5 313.5 767.5 300 760.5 297.5Z" fill="#8A9874"/>
<path d="M789.5 289.5C788 257 765 290 785 309L785.5 307.5C767 291.5 792.5 249.5 786.5 306.5L787.5 305C787.1 298.6 788.667 292 789.5 289.5Z" fill="#8A9874"/>
<path d="M782 291C782 297.8 784 305.167 785 308L786 306.5C785.2 304.9 784 296.5 783.5 292.5L782 291Z" fill="#8A9874"/>
<path d="M786 308.5C832 282 788.5 253.5 787 305L788 303.5C792 256 826.5 283 786.5 306.5L785.5 309L786 308.5Z" fill="#8A9874"/>
<path d="M790.5 305C835.5 293 814.5 330 785 309L786 308C813.5 327 834 295 788.5 306.5L790.5 305Z" fill="#8A9874"/>
<path d="M802.5 308C796.9 309.2 790.5 307.833 788 307L785.5 308C788.3 309.6 797.333 310 801.5 310L802.5 308Z" fill="#8A9874"/>
<path d="M805 303C814.5 298.5 818 287.5 805 290L805.5 288.5C821.5 284 815 301 808 303.5L805 303Z" fill="#8A9874"/>
<path d="M794.5 334.5C789 335.5 780.5 335 770.5 353L770 356C770.8 352 782.5 336.5 791.5 337C786 349 775 345 770.5 355V357.5C776 343.5 786.5 353 794.5 334.5Z" fill="#8A9874"/>
<path d="M774 415.5C774.227 409.833 774.91 405.594 775.941 402.298L776.5 398.5C785.7 382.5 796.5 388 804 355C782.5 370 779.5 377.095 772.5 411.5V410C777 388 770.5 374.5 807 350.5C798.511 395.066 781.735 383.786 775.941 402.298L774 415.5Z" fill="#8A9874"/>
<path d="M791.5 374.5C787.5 376.9 775.5 392 773.5 416L771.5 410.5C775.1 399.7 777.5 386 791 373.5L791.5 374.5Z" fill="#8A9874"/>
<path d="M679.5 321.5C696.5 326 753 352 773 418.5L771 405C757.5 375.5 730 336.5 680.5 321L679.5 321.5Z" fill="#8A9874"/>
<path d="M716 303C714.5 311 708 324 725.5 346L726.5 347C724 339.5 710 324 717 307.5C727.5 319.5 723 335 727 346.5L728.5 348C723 337.5 733 323 716 303Z" fill="#8A9874"/>
<path d="M719 323C721 326.2 724.167 339.667 725.5 346L727.5 347C726.3 345 722.667 330.833 721 324L719 323Z" fill="#8A9874"/>
<path d="M714 356.5C730.5 364 748.5 371.5 752.5 375.5L749.5 371C748.3 369.4 726.333 360.333 715.5 356L714 356.5Z" fill="#8A9874"/>
<path d="M693.5 349.5C703.5 347.5 722 349 733 363.5L728 361.5C727.6 359.5 715 347.5 697 351C700 354 713.5 366.5 729.5 363L735 365.5H733C718 366.5 706 363 693.5 349.5Z" fill="#8A9874"/>
<path d="M712.5 374.5C717 374.5 718 366 742.5 368.5L741.5 369C739.737 369.719 723 367 717 374.5C730.5 379.5 733.5 370 743 369L743.5 370C733 370 731.5 382 712.5 374.5Z" fill="#8A9874"/>
<path d="M685.5 295.5C689 298 700.5 301 698 328H697.5C697 319.5 696 299 686 298C680.5 306.5 695.5 323.5 696.5 327.5L695.5 327C694.5 323.5 677.5 303.5 685.5 295.5Z" fill="#8A9874"/>
<path d="M690 310.5C692.4 313.7 695 322.833 696 327L697.5 328C696.3 318.8 695 313.833 694.5 312.5L693.5 311.5C694.3 313.5 694.5 316.667 694.5 318C693.3 314 692 311.667 691.5 311L690 310.5Z" fill="#8A9874"/>
<path d="M671 339C676 342.5 686.5 340.5 697 328L694.5 329C693 330 681.5 342.5 673 338.5C675 332.5 678.5 326.5 695.5 327.5L695 327C692 327.5 676 322.5 671 339Z" fill="#8A9874"/>
<path d="M682.5 332.5C684.5 330.5 690.667 328.333 693.5 327.5L695 327L697 328L695.5 329C693.9 327.4 687.167 331.333 684 333.5L682.5 332.5Z" fill="#8A9874"/>
<path d="M688.5 315C676.5 302.5 638.5 303 682.5 328L685 327C649 313.5 667 294 693.5 323L688.5 315Z" fill="#8A9874"/>
<path d="M678.5 316.5C681.3 315.7 690.333 323.167 694.5 327H696.5L695 325C685.8 317.8 681.167 316 680 316L678.5 316.5Z" fill="#8A9874"/>
<path d="M684 302C681.2 300.4 669.5 297.5 674 308L676 308.5C674 306 673 297 684.5 304L684 302Z" fill="#8A9874"/>
<path d="M572 169C596.5 169 602 181 610 184.5M610 184.5C603.5 180.5 594.5 168.5 571.5 168.5M610 184.5C593.6 186.9 578.167 176.167 572.5 170.5M610 184.5C594.5 185 584 180.5 572.5 170M572.5 169.5C577.167 171 586.8 174.2 588 175C587.5 175 573.5 169.5 572 169.5M530 129C543.5 135.5 573.9 159.6 587.5 204C583.667 186.667 566.8 147.4 530 129Z" stroke="#8A9874"/>
<path d="M671.5 321C662 320 654.5 331.5 673.5 334.5L674.5 333C663.5 334 655 322.5 674 322.5L671.5 321Z" fill="#8A9874"/>
<path d="M586.5 200C584.167 203 579.4 210.1 579 214.5C579.333 212.667 581.3 207.2 586.5 200Z" fill="#FF0000" stroke="#8A9874"/>
<path d="M579 214C581.941 213.519 587.616 210.244 586.785 201C587.477 204.852 586.889 212.844 579 214Z" fill="#FF0000" stroke="#8A9874"/>
<path d="M603 207C597.182 202.147 590.232 200.622 587.485 200.467L587 200C596.309 201.12 601.545 205.133 603 207Z" fill="#FF0000" stroke="#8A9874"/>
<path d="M593.282 229.016C583.859 229.636 581.165 218.958 581 213.5L582 213C581.215 225.564 589.036 228.879 593.265 228.997C589.277 224.363 596.599 213.339 587.5 203H589C597.5 216.5 587 227.346 597.5 231C595.44 230.657 594.116 229.974 593.282 229.016Z" fill="#FF0000" stroke="#8A9874"/>
<path d="M599.5 218C599.9 213.2 594 207 591 204.5L593 205.5C599.4 210.7 600 216 599.5 218Z" fill="#FF0000"/>
<path d="M587 216.5C588.6 210.5 587.667 205.333 587 203.5H588.5C588.9 209.5 587.667 214.667 587 216.5Z" fill="#FF0000"/>
<path d="M599.5 218C599.9 213.2 594 207 591 204.5L593 205.5C599.4 210.7 600 216 599.5 218Z" stroke="#8A9874"/>
<path d="M587 216.5C588.6 210.5 587.667 205.333 587 203.5H588.5C588.9 209.5 587.667 214.667 587 216.5Z" stroke="#8A9874"/>
<path d="M597.475 230.903C604.019 229.152 604.327 211.396 597 207H599C602.928 211.419 605.892 228.856 597.475 230.903C597.32 230.944 597.162 230.977 597 231C597.162 230.973 597.32 230.941 597.475 230.903Z" fill="#FF0000"/>
<path d="M597 207C604.5 211.5 604 230 597 231C606 229.5 603 211.5 599 207H597Z" stroke="#8A9874"/>
<path d="M602.5 207C596.9 207.8 589.833 203.667 587 201.5V202C595.4 207.6 600.833 207.667 602.5 207Z" fill="#FF0000" stroke="#8A9874"/>
<path d="M557.5 186.5C516 160 541 139.5 518 127.5L518.5 126.5C524.1 129.3 527.5 134.333 528.5 136.5C532.5 147 530.5 167.5 555.5 183.5L557.5 186.5Z" fill="#8A9874" stroke="#8A9874"/>
<path d="M528 134C554.5 149.5 552 178.5 557 186C558.6 186.8 558 184.333 557.5 183C554.561 179 554.5 164 545 148.5C538 137.5 528.5 132 518.5 126L518 126.5L528 134Z" fill="#8A9874" stroke="#8A9874"/>
<path d="M545 164H543.824C543.353 163.545 543.235 162.672 543.235 162.293C542.059 154.044 531.471 136.121 525 132.138L526.176 131C538.882 142.379 544.02 157.741 545 164Z" fill="#8A9874" stroke="#8A9874"/>
<path d="M507.799 122.614C506.907 122.761 505.975 122.89 505 123L507.799 122.614C536.76 117.858 524.225 94.6413 586 97.1956L581.415 99.3021C541.17 96.1424 534.547 111.414 520.283 120.894L507.799 122.614Z" fill="#8A9874"/>
<path d="M505 123C537.604 119.314 522.321 94.5625 586 97.1956L581.415 99.3021C541.17 96.1424 534.547 111.414 520.283 120.894L505 123Z" stroke="#8A9874"/>
<path d="M558 107C555.5 110 520 122.5 506 122L510 123C522.4 122.2 549 113 558.5 108.5C558.9 106.9 558.333 106.833 558 107Z" fill="#8A9874" stroke="#8A9874"/>
<path d="M585.5 97.5C560 116.5 560.5 123 510 123L517.5 121.5C541 120.5 555.5 121 580 99L585.5 97.5Z" fill="#8A9874" stroke="#8A9874"/>
<path d="M639 127C638.667 122.833 640.4 113.9 650 111.5C648.8 121.1 643.833 125.5 641.5 126.5C643.667 125.167 648.4 120.3 650 111.5C646.667 112.667 639.8 117.4 639 127Z" fill="#8A9874"/>
<path d="M650 111.5C640.4 113.9 638.667 122.833 639 127C639.8 117.4 646.667 112.667 650 111.5ZM650 111.5C648.4 120.3 643.667 125.167 641.5 126.5C643.833 125.5 648.8 121.1 650 111.5Z" stroke="#8A9874"/>
<path d="M655 139C643.8 137 640 130.167 639.5 127C641.5 134.2 650.667 138 655 139C652.667 135.167 646.6 127.4 641 127C643.833 127 650.6 129.4 655 139Z" fill="#8A9874"/>
<path d="M655 139C643.8 137 640 130.167 639.5 127C641.5 134.2 650.667 138 655 139ZM655 139C652.667 135.167 646.6 127.4 641 127C643.833 127 650.6 129.4 655 139Z" stroke="#8A9874"/>
<path d="M673 122C665.8 114 652.667 118 647 121C660.6 113 670 118.333 673 122C672.5 125.833 666.8 132.9 648 130.5C655 131.167 669.8 130.4 673 122Z" fill="#8A9874"/>
<path d="M673 122C665.8 114 652.667 118 647 121C660.6 113 670 118.333 673 122ZM673 122C669.8 130.4 655 131.167 648 130.5C666.8 132.9 672.5 125.833 673 122Z" stroke="#8A9874"/>
<path d="M648.5 116.5C652.667 113.167 662.4 108.9 668 118.5C666 114.167 659.3 107.7 648.5 116.5Z" fill="#8A9874"/>
<path d="M653 135.5C656.082 135.819 661.048 135.69 664.035 133.896C666.013 132.427 666.583 130.411 666.5 129C666.79 131.319 665.732 132.876 664.035 133.896C662.042 135.376 658.621 136.303 653 135.5Z" fill="#8A9874"/>
<path d="M648.5 116.5C652.667 113.167 662.4 108.9 668 118.5C666 114.167 659.3 107.7 648.5 116.5Z" stroke="#8A9874"/>
<path d="M653 135.5C656.082 135.819 661.048 135.69 664.035 133.896C666.013 132.427 666.583 130.411 666.5 129C666.79 131.319 665.732 132.876 664.035 133.896C662.042 135.376 658.621 136.303 653 135.5Z" stroke="#8A9874"/>
<path d="M635.507 156.444C613.833 153.901 602.812 140.786 600 134.5C609.408 149.787 627.266 155.44 635.507 156.444C635.671 156.463 635.835 156.482 636 156.5C635.84 156.483 635.675 156.465 635.507 156.444Z" fill="#8A9874"/>
<path d="M600 134.5C602.833 140.833 614 154.1 636 156.5C628 155.667 609.6 150.1 600 134.5Z" stroke="#8A9874"/>
<path d="M635.633 156.437C635.762 156.629 635.884 156.817 636 157C635.878 156.811 635.756 156.623 635.633 156.437C630.869 149.281 617.898 135.816 601 135.02C607.668 134.683 623.832 138.518 635.633 156.437Z" fill="#8A9874"/>
<path d="M636 157C631.563 150.014 618.352 135.838 601 135.02C607.737 134.679 624.169 138.598 636 157Z" stroke="#8A9874"/>
<path d="M607.254 138.675C611.498 141.434 615.743 144.486 616.5 146C616.747 144.521 611.767 141.34 607.254 138.675Z" fill="#8A9874"/>
<path d="M600.5 134.5C605.333 137.333 615.3 143.6 616.5 146C617 143 596 133 601 134.5" stroke="#8A9874"/>
<path d="M587.066 134.856C586.734 134.951 586.38 135 586 135L587.066 134.856C594.919 132.613 590.241 104.778 624 97L620.716 99.5335C603.827 102.574 597.005 115.747 589.753 134.494L587.066 134.856Z" fill="#8A9874"/>
<path d="M586 135C595.383 135 588.815 105.107 624 97L620.716 99.5335C603.827 102.574 597.005 115.747 589.753 134.494C588.502 134.662 586 135 586 135Z" stroke="#8A9874"/>
<path d="M623 98C608.5 128 601 125 590 135L588 134.5L590.5 133C600.1 127 612 121.5 620.5 99L623 98Z" fill="#8A9874" stroke="#8A9874"/>
<path d="M590 133.5C591.995 128.345 598.272 116.852 607.438 112.033C607.46 112.02 607.481 112.009 607.5 112C607.479 112.011 607.459 112.022 607.438 112.033C607.057 112.24 606.132 112.868 605 114C598.924 119 594.5 126.5 591 133L590 133.5Z" fill="#8A9874" stroke="#8A9874"/>
<path d="M652 124.091C645.408 122.557 608.901 140.972 544 132.276L550.085 134.833C607.887 139.437 632.732 129.207 649.972 125.114C650.377 124.705 651.493 124.262 652 124.091Z" fill="#8A9874" stroke="#8A9874"/>
<path d="M544 751.5L545 752.5C545 752.1 545.667 751.667 546 751.5C548.4 750.3 550 753.1 551.5 755.5C554 759.5 562 774 556 779C555.313 779.573 557 781.833 557 783C564 775.5 561 768 554.5 754C552.444 749.571 553 749 557 746L556 744.5L544 751.5Z" fill="#8A9874"/>
<path d="M579.232 765.29L571.402 768.207L570.886 767.235C575.352 766.736 572.808 758.109 572.625 753.844L580.861 750.711L572.184 742.234L571.595 738.185L572.407 737.752C583.557 749.901 591.421 758.81 595.04 758.755L595.298 759.241L587.468 762.158L587.21 761.672L589.131 759.404L581.119 751.197L573.954 754.383C573.717 755.507 574.173 763.617 575.096 764.373C575.717 765.539 577.94 765.146 578.974 764.804L579.232 765.29Z" fill="#8A9874"/>
<path d="M573 757C572.6 755.8 572.5 746 572 741H572.5C572.9 741.8 573.333 750 573.5 754H574L573 757Z" fill="#8A9874"/>
<path d="M603 754.5L610.5 749.5L608 748.5L606.5 749.5L606 748.5L596.5 733L620.5 743.5L623.5 742L611.5 722L613 719.5V717.5L605 722L609 722.5L618.5 737.5L594 728.5L588.5 732L589.5 733H593L604.5 750.5L602.5 752L603 754.5Z" fill="#8A9874"/>
<path d="M650.5 705.5C657 697 646 688 644 703L642.5 702.5C644.5 686 657.5 693.5 655 700C673 700 663 721.5 652.5 717L653.5 715.5C670.5 713 660 693.5 651.5 706.5L650.5 705.5Z" fill="#8A9874"/>
<path d="M662 677C655.5 682 667.5 703.5 680 698L678 696C671.5 698.5 658.5 684 664 679C668.5 673.5 683 685.5 680.5 695L682 697C688 691.5 671.5 668.5 662 677Z" fill="#8A9874"/>
<path d="M711.826 618.865C705.326 623.865 717.326 645.365 729.826 639.865L727.826 637.865C721.326 640.365 708.326 625.865 713.826 620.865C718.326 615.365 732.826 627.365 730.326 636.865L731.826 638.865C737.826 633.365 721.326 610.365 711.826 618.865Z" fill="#8A9874"/>
<path d="M681 693C680 695.5 679.5 695.5 678 696V697.5C678.167 697.833 678.8 698.4 680 698C681.2 697.6 680.5 698 682 697L681 693Z" fill="#8A9874"/>
<path d="M732.5 638C731.5 639.5 730.5 640 729 640L727.5 638C728.5 637.5 729.3 637.6 730.5 636L732.5 638Z" fill="#8A9874"/>
<circle cx="528" cy="772" r="5" fill="#8A9874"/>
<circle cx="633.5" cy="734.5" r="2.5" fill="#8A9874"/>
<circle cx="693.5" cy="681.5" r="2.5" fill="#8A9874"/>
<path d="M698.5 687.5C698.5 684.3 695.833 682.5 694.5 682V679.5C698.5 681.9 698.833 685.833 698.5 687.5Z" fill="#8A9874"/>
<path d="M635.265 741.342C636.337 738.397 635.43 736.191 634.842 735.456L635.68 733.155C637.141 736.189 636.012 739.877 635.265 741.342Z" fill="#8A9874"/>
<path d="M695 647.5L699 651.5V650C690.5 643.5 711 629.5 711.5 662.5L720.5 651L717 647L718 651L712.5 659C710 631 699.5 635.5 695 647.5Z" fill="#8A9874"/>
<path d="M721.5 605.5L725.5 609.5L725 607.5C720.5 598 735 592.5 740 619L748 606.5L744 603L745 606.5L740.5 615C738 600.5 727.5 585.5 721.5 605.5Z" fill="#8A9874"/>
<path d="M731.5 585.5L736 589.5C732.8 585.1 736.667 577.667 739 574.5L758.5 597L760 594L738 571L731.5 585.5Z" fill="#8A9874"/>
<path d="M695 647.5L699 651.5V650C690.5 643.5 711 629.5 711.5 662.5L720.5 651L717 647L718 651L712.5 659C710 631 699.5 635.5 695 647.5Z" stroke="#8A9874"/>
<path d="M721.5 605.5L725.5 609.5L725 607.5C720.5 598 735 592.5 740 619L748 606.5L744 603L745 606.5L740.5 615C738 600.5 727.5 585.5 721.5 605.5Z" stroke="#8A9874"/>
<path d="M731.5 585.5L736 589.5C732.8 585.1 736.667 577.667 739 574.5L758.5 597L760 594L738 571L731.5 585.5Z" stroke="#8A9874"/>
</svg>
